<svg width="29" height="29" viewBox="0 0 29 29" fill="none" xmlns="http://www.w3.org/2000/svg">
<path fill-rule="evenodd" clip-rule="evenodd" d="M12.0502 0.121074C8.09726 0.728607 4.86132 2.8411 2.5199 6.34272C2.06924 7.0167 1.27449 8.61027 0.951949 9.4867C0.617859 10.3944 0.24303 11.9267 0.11134 12.9224C-0.0217123 13.9291 -0.0386438 15.8211 0.0774768 16.7146C0.482796 19.8339 1.69298 22.455 3.70654 24.5749C5.94449 26.931 8.86009 28.3576 12.5691 28.9116C13.4473 29.0428 15.7623 29.0246 16.6561 28.8795C19.4455 28.4267 21.7786 27.3712 23.8934 25.6054C26.3752 23.5331 28.137 20.5629 28.7826 17.3627C29.1292 15.6442 29.0744 15.0348 28.5238 14.4847C27.7169 13.6783 26.3515 13.9011 25.8235 14.9254C25.7518 15.0644 25.6516 15.4551 25.6007 15.7936C25.2982 17.8059 24.696 19.4277 23.7052 20.8982C21.1461 24.6966 16.2672 26.4268 11.5457 25.2104C7.98438 24.2928 5.21182 21.7463 4.0165 18.2952C3.31906 16.2815 3.15727 14.2157 3.54663 12.2943C4.31906 8.48212 6.88993 5.44049 10.5248 4.03841C11.2602 3.7548 12.003 3.57051 13.001 3.42413C13.8924 3.29338 14.2 3.17404 14.5278 2.8317C15.3419 1.98153 15.058 0.618989 13.9639 0.124704C13.5983 -0.0404687 13.1074 -0.0414411 12.0502 0.121074ZM13.4773 5.47472C11.2743 5.80701 9.68169 6.56967 8.18957 8.0067C7.81312 8.36926 7.3378 8.89809 7.13333 9.18183C6.39548 10.2059 5.82318 11.5164 5.55649 12.7927C5.38497 13.6137 5.38497 15.4074 5.55649 16.2284C5.83116 17.5429 6.43362 18.9018 7.18445 19.9005C7.66061 20.5339 8.62694 21.4834 9.23096 21.9113C10.2112 22.6058 11.5392 23.1764 12.7637 23.4291C13.626 23.607 15.1866 23.5965 16.1371 23.4064C18.0312 23.0275 19.5495 22.2638 20.7972 21.0624C22.5655 19.3598 23.5 17.0944 23.5 14.5106C23.5 11.9658 22.6282 9.80246 20.9113 8.08682C19.6145 6.79091 18.1266 6.01412 16.202 5.6281C15.5747 5.50227 13.9142 5.40879 13.4773 5.47472ZM14.6997 7.84081C14.7866 7.88042 14.8902 7.98388 14.9298 8.07074C14.9785 8.17751 15.0018 9.01413 15.0018 10.6522C15.0018 13.0611 15.0027 13.076 15.1388 13.1191C15.3442 13.1843 15.7543 13.5783 15.8454 13.7982L15.9258 13.992H17.6724H19.419L19.5782 14.1511C19.7889 14.3616 19.7889 14.6596 19.5782 14.87L19.419 15.0292H17.6689C15.9572 15.0292 15.9178 15.0321 15.8762 15.1631C15.808 15.3779 15.4576 15.7384 15.1702 15.8895C14.8233 16.0719 14.1624 16.0824 13.8341 15.9109C13.5168 15.7451 13.262 15.4951 13.1008 15.1912C12.9096 14.8311 12.9106 14.189 13.1029 13.8238C13.2541 13.5365 13.6149 13.1864 13.8299 13.1182C13.9621 13.0763 13.9639 13.0445 13.9639 10.6522C13.9639 8.12098 13.9787 7.97448 14.247 7.8447C14.4309 7.75569 14.5112 7.75498 14.6997 7.84081ZM14.151 14.1147C14.0354 14.2082 13.9992 14.3025 13.9992 14.5106C13.9992 14.7187 14.0354 14.8129 14.151 14.9065C14.4197 15.124 14.7554 15.0581 14.911 14.7573C15.1775 14.2424 14.5983 13.7527 14.151 14.1147Z" fill="white"/>
</svg>
